<svg xmlns="http://www.w3.org/2000/svg" width="98.559" height="88.068" viewBox="0 0 98.559 88.068"><defs><style>.a{fill:#fff;}</style></defs><g transform="translate(0 -23.224)"><g transform="translate(0 23.224)"><g transform="translate(0 0)"><path class="a" d="M76.876,23.224H46.616a7.23,7.23,0,0,0-5.11,2.118L2.117,64.723a7.23,7.23,0,0,0,0,10.223l30.261,30.261a7.226,7.226,0,0,0,10.219,0L81.986,65.826A7.247,7.247,0,0,0,84.1,60.709V30.451A7.225,7.225,0,0,0,76.876,23.224ZM64.229,48.52A5.421,5.421,0,1,1,69.649,43.1,5.422,5.422,0,0,1,64.229,48.52Z" transform="translate(0 -23.224)"/></g></g><g transform="translate(49.459 30.451)"><path class="a" d="M260.86,55.224l0,33.64a6.277,6.277,0,0,1-1.843,4.445l-40.025,40.025.614.614a7.226,7.226,0,0,0,10.219,0l36.144-36.137a7.218,7.218,0,0,0,2.121-5.11V62.451A7.225,7.225,0,0,0,260.86,55.224Z" transform="translate(-218.988 -55.224)"/></g></g></svg>