<svg xmlns="http://www.w3.org/2000/svg" width="98.939" height="98.94" viewBox="0 0 98.939 98.94"><defs><style>.a{fill:#fff;}</style></defs><g transform="translate(-0.001 0.001)"><g transform="translate(0.001 0)"><path class="a" d="M89.616,9.324A31.868,31.868,0,0,0,36.759,41.684L.85,77.593A2.9,2.9,0,0,0,0,79.643v16.4a2.9,2.9,0,0,0,2.9,2.9H19.3a2.9,2.9,0,0,0,2.049-.849l4.1-4.1a2.9,2.9,0,0,0,.829-2.383l-.51-4.4,6.1-.575a2.894,2.894,0,0,0,2.613-2.613l.575-6.1,4.4.512a2.852,2.852,0,0,0,2.262-.713,2.906,2.906,0,0,0,.971-2.165v-5.4h5.3a2.9,2.9,0,0,0,2.049-.849l7.433-7.335a31.391,31.391,0,0,0,32.141-7.545A31.921,31.921,0,0,0,89.616,9.324Zm-8.2,20.5a8.695,8.695,0,1,1,0-12.3A8.7,8.7,0,0,1,81.416,29.821Z" transform="translate(-0.001 0.001)"/></g></g></svg>